<svg xmlns="http://www.w3.org/2000/svg" viewBox="0 0 1200 750" width="1200" height="750" role="img"><rect width="1200" height="750" fill="#2b2b2b"/><line x1="931" y1="375" x2="874" y2="417" stroke="#cfc7ae" stroke-width="2" stroke-opacity="0.55"/><line x1="931" y1="375" x2="974" y2="498" stroke="#cfc7ae" stroke-width="2" stroke-opacity="0.55"/><line x1="931" y1="375" x2="795" y2="483" stroke="#cfc7ae" stroke-width="2" stroke-opacity="0.55"/><line x1="931" y1="375" x2="822" y2="576" stroke="#cfc7ae" stroke-width="2" stroke-opacity="0.55"/><line x1="931" y1="375" x2="840" y2="242" stroke="#cfc7ae" stroke-width="2" stroke-opacity="0.55"/><line x1="931" y1="375" x2="848" y2="294" stroke="#cfc7ae" stroke-width="2" stroke-opacity="0.55"/><line x1="931" y1="375" x2="865" y2="334" stroke="#cfc7ae" stroke-width="2" stroke-opacity="0.55"/><line x1="874" y1="417" x2="974" y2="498" stroke="#cfc7ae" stroke-width="2" stroke-opacity="0.55"/><line x1="874" y1="417" x2="795" y2="483" stroke="#cfc7ae" stroke-width="2" stroke-opacity="0.55"/><line x1="874" y1="417" x2="822" y2="576" stroke="#cfc7ae" stroke-width="2" stroke-opacity="0.55"/><line x1="874" y1="417" x2="721" y2="575" stroke="#cfc7ae" stroke-width="2" stroke-opacity="0.55"/><line x1="874" y1="417" x2="840" y2="242" stroke="#cfc7ae" stroke-width="2" stroke-opacity="0.55"/><line x1="874" y1="417" x2="848" y2="294" stroke="#cfc7ae" stroke-width="2" stroke-opacity="0.55"/><line x1="874" y1="417" x2="865" y2="334" stroke="#cfc7ae" stroke-width="2" stroke-opacity="0.55"/><line x1="974" y1="498" x2="795" y2="483" stroke="#cfc7ae" stroke-width="2" stroke-opacity="0.55"/><line x1="974" y1="498" x2="822" y2="576" stroke="#cfc7ae" stroke-width="2" stroke-opacity="0.55"/><line x1="974" y1="498" x2="848" y2="294" stroke="#cfc7ae" stroke-width="2" stroke-opacity="0.55"/><line x1="974" y1="498" x2="865" y2="334" stroke="#cfc7ae" stroke-width="2" stroke-opacity="0.55"/><line x1="795" y1="483" x2="822" y2="576" stroke="#cfc7ae" stroke-width="2" stroke-opacity="0.55"/><line x1="795" y1="483" x2="721" y2="575" stroke="#cfc7ae" stroke-width="2" stroke-opacity="0.55"/><line x1="795" y1="483" x2="631" y2="534" stroke="#cfc7ae" stroke-width="2" stroke-opacity="0.55"/><line x1="795" y1="483" x2="840" y2="242" stroke="#cfc7ae" stroke-width="2" stroke-opacity="0.55"/><line x1="795" y1="483" x2="848" y2="294" stroke="#cfc7ae" stroke-width="2" stroke-opacity="0.55"/><line x1="795" y1="483" x2="865" y2="334" stroke="#cfc7ae" stroke-width="2" stroke-opacity="0.55"/><line x1="822" y1="576" x2="721" y2="575" stroke="#cfc7ae" stroke-width="2" stroke-opacity="0.55"/><line x1="822" y1="576" x2="631" y2="534" stroke="#cfc7ae" stroke-width="2" stroke-opacity="0.55"/><line x1="822" y1="576" x2="865" y2="334" stroke="#cfc7ae" stroke-width="2" stroke-opacity="0.55"/><line x1="721" y1="575" x2="631" y2="534" stroke="#cfc7ae" stroke-width="2" stroke-opacity="0.55"/><line x1="721" y1="575" x2="554" y2="612" stroke="#cfc7ae" stroke-width="2" stroke-opacity="0.55"/><line x1="721" y1="575" x2="511" y2="521" stroke="#cfc7ae" stroke-width="2" stroke-opacity="0.55"/><line x1="631" y1="534" x2="554" y2="612" stroke="#cfc7ae" stroke-width="2" stroke-opacity="0.55"/><line x1="631" y1="534" x2="511" y2="521" stroke="#cfc7ae" stroke-width="2" stroke-opacity="0.55"/><line x1="631" y1="534" x2="395" y2="561" stroke="#cfc7ae" stroke-width="2" stroke-opacity="0.55"/><line x1="631" y1="534" x2="406" y2="483" stroke="#cfc7ae" stroke-width="2" stroke-opacity="0.55"/><line x1="554" y1="612" x2="511" y2="521" stroke="#cfc7ae" stroke-width="2" stroke-opacity="0.55"/><line x1="554" y1="612" x2="395" y2="561" stroke="#cfc7ae" stroke-width="2" stroke-opacity="0.55"/><line x1="554" y1="612" x2="406" y2="483" stroke="#cfc7ae" stroke-width="2" stroke-opacity="0.55"/><line x1="554" y1="612" x2="365" y2="452" stroke="#cfc7ae" stroke-width="2" stroke-opacity="0.55"/><line x1="511" y1="521" x2="395" y2="561" stroke="#cfc7ae" stroke-width="2" stroke-opacity="0.55"/><line x1="511" y1="521" x2="406" y2="483" stroke="#cfc7ae" stroke-width="2" stroke-opacity="0.55"/><line x1="511" y1="521" x2="365" y2="452" stroke="#cfc7ae" stroke-width="2" stroke-opacity="0.55"/><line x1="395" y1="561" x2="406" y2="483" stroke="#cfc7ae" stroke-width="2" stroke-opacity="0.55"/><line x1="395" y1="561" x2="365" y2="452" stroke="#cfc7ae" stroke-width="2" stroke-opacity="0.55"/><line x1="395" y1="561" x2="252" y2="429" stroke="#cfc7ae" stroke-width="2" stroke-opacity="0.55"/><line x1="395" y1="561" x2="333" y2="334" stroke="#cfc7ae" stroke-width="2" stroke-opacity="0.55"/><line x1="406" y1="483" x2="365" y2="452" stroke="#cfc7ae" stroke-width="2" stroke-opacity="0.55"/><line x1="406" y1="483" x2="252" y2="429" stroke="#cfc7ae" stroke-width="2" stroke-opacity="0.55"/><line x1="406" y1="483" x2="333" y2="334" stroke="#cfc7ae" stroke-width="2" stroke-opacity="0.55"/><line x1="406" y1="483" x2="332" y2="287" stroke="#cfc7ae" stroke-width="2" stroke-opacity="0.55"/><line x1="365" y1="452" x2="252" y2="429" stroke="#cfc7ae" stroke-width="2" stroke-opacity="0.55"/><line x1="365" y1="452" x2="128" y2="375" stroke="#cfc7ae" stroke-width="2" stroke-opacity="0.55"/><line x1="365" y1="452" x2="333" y2="334" stroke="#cfc7ae" stroke-width="2" stroke-opacity="0.55"/><line x1="365" y1="452" x2="332" y2="287" stroke="#cfc7ae" stroke-width="2" stroke-opacity="0.55"/><line x1="252" y1="429" x2="128" y2="375" stroke="#cfc7ae" stroke-width="2" stroke-opacity="0.55"/><line x1="252" y1="429" x2="333" y2="334" stroke="#cfc7ae" stroke-width="2" stroke-opacity="0.55"/><line x1="252" y1="429" x2="332" y2="287" stroke="#cfc7ae" stroke-width="2" stroke-opacity="0.55"/><line x1="252" y1="429" x2="289" y2="203" stroke="#cfc7ae" stroke-width="2" stroke-opacity="0.55"/><line x1="128" y1="375" x2="333" y2="334" stroke="#cfc7ae" stroke-width="2" stroke-opacity="0.55"/><line x1="128" y1="375" x2="332" y2="287" stroke="#cfc7ae" stroke-width="2" stroke-opacity="0.55"/><line x1="128" y1="375" x2="289" y2="203" stroke="#cfc7ae" stroke-width="2" stroke-opacity="0.55"/><line x1="333" y1="334" x2="332" y2="287" stroke="#cfc7ae" stroke-width="2" stroke-opacity="0.55"/><line x1="333" y1="334" x2="289" y2="203" stroke="#cfc7ae" stroke-width="2" stroke-opacity="0.55"/><line x1="333" y1="334" x2="313" y2="115" stroke="#cfc7ae" stroke-width="2" stroke-opacity="0.55"/><line x1="333" y1="334" x2="458" y2="140" stroke="#cfc7ae" stroke-width="2" stroke-opacity="0.55"/><line x1="332" y1="287" x2="289" y2="203" stroke="#cfc7ae" stroke-width="2" stroke-opacity="0.55"/><line x1="332" y1="287" x2="313" y2="115" stroke="#cfc7ae" stroke-width="2" stroke-opacity="0.55"/><line x1="332" y1="287" x2="458" y2="140" stroke="#cfc7ae" stroke-width="2" stroke-opacity="0.55"/><line x1="289" y1="203" x2="313" y2="115" stroke="#cfc7ae" stroke-width="2" stroke-opacity="0.55"/><line x1="289" y1="203" x2="458" y2="140" stroke="#cfc7ae" stroke-width="2" stroke-opacity="0.55"/><line x1="313" y1="115" x2="458" y2="140" stroke="#cfc7ae" stroke-width="2" stroke-opacity="0.55"/><line x1="313" y1="115" x2="558" y2="157" stroke="#cfc7ae" stroke-width="2" stroke-opacity="0.55"/><line x1="458" y1="140" x2="558" y2="157" stroke="#cfc7ae" stroke-width="2" stroke-opacity="0.55"/><line x1="458" y1="140" x2="662" y2="56" stroke="#cfc7ae" stroke-width="2" stroke-opacity="0.55"/><line x1="458" y1="140" x2="690" y2="227" stroke="#cfc7ae" stroke-width="2" stroke-opacity="0.55"/><line x1="558" y1="157" x2="662" y2="56" stroke="#cfc7ae" stroke-width="2" stroke-opacity="0.55"/><line x1="558" y1="157" x2="690" y2="227" stroke="#cfc7ae" stroke-width="2" stroke-opacity="0.55"/><line x1="662" y1="56" x2="690" y2="227" stroke="#cfc7ae" stroke-width="2" stroke-opacity="0.55"/><line x1="662" y1="56" x2="873" y2="128" stroke="#cfc7ae" stroke-width="2" stroke-opacity="0.55"/><line x1="690" y1="227" x2="873" y2="128" stroke="#cfc7ae" stroke-width="2" stroke-opacity="0.55"/><line x1="690" y1="227" x2="840" y2="242" stroke="#cfc7ae" stroke-width="2" stroke-opacity="0.55"/><line x1="690" y1="227" x2="848" y2="294" stroke="#cfc7ae" stroke-width="2" stroke-opacity="0.55"/><line x1="690" y1="227" x2="865" y2="334" stroke="#cfc7ae" stroke-width="2" stroke-opacity="0.55"/><line x1="873" y1="128" x2="840" y2="242" stroke="#cfc7ae" stroke-width="2" stroke-opacity="0.55"/><line x1="873" y1="128" x2="848" y2="294" stroke="#cfc7ae" stroke-width="2" stroke-opacity="0.55"/><line x1="873" y1="128" x2="865" y2="334" stroke="#cfc7ae" stroke-width="2" stroke-opacity="0.55"/><line x1="840" y1="242" x2="848" y2="294" stroke="#cfc7ae" stroke-width="2" stroke-opacity="0.55"/><line x1="840" y1="242" x2="865" y2="334" stroke="#cfc7ae" stroke-width="2" stroke-opacity="0.55"/><line x1="848" y1="294" x2="865" y2="334" stroke="#cfc7ae" stroke-width="2" stroke-opacity="0.55"/><circle cx="931" cy="375" r="10" fill="#9e9eff" stroke="#cfc7ae" stroke-width="3"/><circle cx="874" cy="417" r="16" fill="#ffd966" stroke="#cfc7ae" stroke-width="3"/><circle cx="974" cy="498" r="22" fill="#ffd966" stroke="#cfc7ae" stroke-width="3"/><circle cx="795" cy="483" r="28" fill="#ffd966" stroke="#cfc7ae" stroke-width="3"/><circle cx="822" cy="576" r="10" fill="#ffd966" stroke="#cfc7ae" stroke-width="3"/><circle cx="721" cy="575" r="16" fill="#9e9eff" stroke="#cfc7ae" stroke-width="3"/><circle cx="631" cy="534" r="22" fill="#ffd966" stroke="#cfc7ae" stroke-width="3"/><circle cx="554" cy="612" r="28" fill="#ffd966" stroke="#cfc7ae" stroke-width="3"/><circle cx="511" cy="521" r="10" fill="#ffd966" stroke="#cfc7ae" stroke-width="3"/><circle cx="395" cy="561" r="16" fill="#ffd966" stroke="#cfc7ae" stroke-width="3"/><circle cx="406" cy="483" r="22" fill="#9e9eff" stroke="#cfc7ae" stroke-width="3"/><circle cx="365" cy="452" r="28" fill="#ffd966" stroke="#cfc7ae" stroke-width="3"/><circle cx="252" cy="429" r="10" fill="#ffd966" stroke="#cfc7ae" stroke-width="3"/><circle cx="128" cy="375" r="16" fill="#ffd966" stroke="#cfc7ae" stroke-width="3"/><circle cx="333" cy="334" r="22" fill="#ffd966" stroke="#cfc7ae" stroke-width="3"/><circle cx="332" cy="287" r="28" fill="#9e9eff" stroke="#cfc7ae" stroke-width="3"/><circle cx="289" cy="203" r="10" fill="#ffd966" stroke="#cfc7ae" stroke-width="3"/><circle cx="313" cy="115" r="16" fill="#ffd966" stroke="#cfc7ae" stroke-width="3"/><circle cx="458" cy="140" r="22" fill="#ffd966" stroke="#cfc7ae" stroke-width="3"/><circle cx="558" cy="157" r="28" fill="#ffd966" stroke="#cfc7ae" stroke-width="3"/><circle cx="662" cy="56" r="10" fill="#9e9eff" stroke="#cfc7ae" stroke-width="3"/><circle cx="690" cy="227" r="16" fill="#ffd966" stroke="#cfc7ae" stroke-width="3"/><circle cx="873" cy="128" r="22" fill="#ffd966" stroke="#cfc7ae" stroke-width="3"/><circle cx="840" cy="242" r="28" fill="#ffd966" stroke="#cfc7ae" stroke-width="3"/><circle cx="848" cy="294" r="10" fill="#ffd966" stroke="#cfc7ae" stroke-width="3"/><circle cx="865" cy="334" r="16" fill="#9e9eff" stroke="#cfc7ae" stroke-width="3"/></svg>
