<svg xmlns="http://www.w3.org/2000/svg" viewBox="0 0 1200 750" width="1200" height="750" role="img"><rect width="1200" height="750" fill="#fff2cc"/><line x1="30" y1="30" x2="1170" y2="30" stroke="#595959" stroke-width="2" stroke-opacity="0.4"/><line x1="40" y1="106.80000000000001" x2="96.60688384988754" y2="88.40730849480315" stroke="#ffd966" stroke-width="11" stroke-linecap="round"/><line x1="132" y1="106.80000000000001" x2="188.60688384988754" y2="88.40730849480315" stroke="#ffd966" stroke-width="11" stroke-linecap="round"/><line x1="224" y1="106.80000000000001" x2="280.60688384988754" y2="88.40730849480315" stroke="#ffd966" stroke-width="11" stroke-linecap="round"/><line x1="316" y1="106.80000000000001" x2="372.60688384988754" y2="88.40730849480315" stroke="#ffd966" stroke-width="11" stroke-linecap="round"/><line x1="408" y1="106.80000000000001" x2="464.60688384988754" y2="88.40730849480315" stroke="#ffd966" stroke-width="11" stroke-linecap="round"/><line x1="500" y1="106.80000000000001" x2="556.6068838498875" y2="88.40730849480315" stroke="#ffd966" stroke-width="11" stroke-linecap="round"/><line x1="592" y1="106.80000000000001" x2="648.6068838498875" y2="88.40730849480315" stroke="#ffd966" stroke-width="11" stroke-linecap="round"/><line x1="684" y1="106.80000000000001" x2="740.6068838498875" y2="88.40730849480315" stroke="#ffd966" stroke-width="11" stroke-linecap="round"/><line x1="776" y1="106.80000000000001" x2="832.6068838498875" y2="88.40730849480315" stroke="#ffd966" stroke-width="11" stroke-linecap="round"/><line x1="868" y1="106.80000000000001" x2="924.6068838498875" y2="88.40730849480315" stroke="#ffd966" stroke-width="11" stroke-linecap="round"/><line x1="960" y1="106.80000000000001" x2="1016.6068838498875" y2="88.40730849480315" stroke="#ffd966" stroke-width="11" stroke-linecap="round"/><line x1="1052" y1="106.80000000000001" x2="1108.6068838498875" y2="88.40730849480315" stroke="#ffd966" stroke-width="11" stroke-linecap="round"/><circle cx="1108.6068838498875" cy="88.40730849480315" r="7" fill="#0000ff"/><line x1="30" y1="126" x2="1170" y2="126" stroke="#595959" stroke-width="2" stroke-opacity="0.4"/><line x1="40" y1="202.8" x2="94.78844887748924" y2="179.54368323231844" stroke="#ffd966" stroke-width="11" stroke-linecap="round"/><line x1="132" y1="202.8" x2="186.78844887748926" y2="179.54368323231844" stroke="#ffd966" stroke-width="11" stroke-linecap="round"/><line x1="224" y1="202.8" x2="278.78844887748926" y2="179.54368323231844" stroke="#ffd966" stroke-width="11" stroke-linecap="round"/><line x1="316" y1="202.8" x2="370.78844887748926" y2="179.54368323231844" stroke="#ffd966" stroke-width="11" stroke-linecap="round"/><line x1="408" y1="202.8" x2="462.78844887748926" y2="179.54368323231844" stroke="#ffd966" stroke-width="11" stroke-linecap="round"/><line x1="500" y1="202.8" x2="554.7884488774893" y2="179.54368323231844" stroke="#ffd966" stroke-width="11" stroke-linecap="round"/><line x1="592" y1="202.8" x2="646.7884488774893" y2="179.54368323231844" stroke="#ffd966" stroke-width="11" stroke-linecap="round"/><line x1="684" y1="202.8" x2="738.7884488774893" y2="179.54368323231844" stroke="#ffd966" stroke-width="11" stroke-linecap="round"/><line x1="776" y1="202.8" x2="830.7884488774893" y2="179.54368323231844" stroke="#ffd966" stroke-width="11" stroke-linecap="round"/><line x1="868" y1="202.8" x2="922.7884488774893" y2="179.54368323231844" stroke="#ffd966" stroke-width="11" stroke-linecap="round"/><line x1="960" y1="202.8" x2="1014.7884488774893" y2="179.54368323231844" stroke="#ffd966" stroke-width="11" stroke-linecap="round"/><line x1="1052" y1="202.8" x2="1106.7884488774891" y2="179.54368323231844" stroke="#ffd966" stroke-width="11" stroke-linecap="round"/><circle cx="1106.7884488774891" cy="179.54368323231844" r="7" fill="#0000ff"/><line x1="30" y1="222" x2="1170" y2="222" stroke="#595959" stroke-width="2" stroke-opacity="0.4"/><line x1="40" y1="298.8" x2="92.55304072696333" y2="270.8570525829838" stroke="#ffd966" stroke-width="11" stroke-linecap="round"/><line x1="132" y1="298.8" x2="184.55304072696333" y2="270.8570525829838" stroke="#ffd966" stroke-width="11" stroke-linecap="round"/><line x1="224" y1="298.8" x2="276.55304072696333" y2="270.8570525829838" stroke="#ffd966" stroke-width="11" stroke-linecap="round"/><line x1="316" y1="298.8" x2="368.55304072696333" y2="270.8570525829838" stroke="#ffd966" stroke-width="11" stroke-linecap="round"/><line x1="408" y1="298.8" x2="460.55304072696333" y2="270.8570525829838" stroke="#ffd966" stroke-width="11" stroke-linecap="round"/><line x1="500" y1="298.8" x2="552.5530407269633" y2="270.8570525829838" stroke="#ffd966" stroke-width="11" stroke-linecap="round"/><line x1="592" y1="298.8" x2="644.5530407269633" y2="270.8570525829838" stroke="#ffd966" stroke-width="11" stroke-linecap="round"/><line x1="684" y1="298.8" x2="736.5530407269633" y2="270.8570525829838" stroke="#ffd966" stroke-width="11" stroke-linecap="round"/><line x1="776" y1="298.8" x2="828.5530407269633" y2="270.8570525829838" stroke="#ffd966" stroke-width="11" stroke-linecap="round"/><line x1="868" y1="298.8" x2="920.5530407269633" y2="270.8570525829838" stroke="#ffd966" stroke-width="11" stroke-linecap="round"/><line x1="960" y1="298.8" x2="1012.5530407269633" y2="270.8570525829838" stroke="#ffd966" stroke-width="11" stroke-linecap="round"/><line x1="1052" y1="298.8" x2="1104.5530407269634" y2="270.8570525829838" stroke="#ffd966" stroke-width="11" stroke-linecap="round"/><circle cx="1104.5530407269634" cy="270.8570525829838" r="7" fill="#0000ff"/><line x1="30" y1="318" x2="1170" y2="318" stroke="#595959" stroke-width="2" stroke-opacity="0.4"/><line x1="40" y1="394.8" x2="89.91767220411164" y2="362.3830846359056" stroke="#ffd966" stroke-width="11" stroke-linecap="round"/><line x1="132" y1="394.8" x2="181.91767220411162" y2="362.3830846359056" stroke="#ffd966" stroke-width="11" stroke-linecap="round"/><line x1="224" y1="394.8" x2="273.9176722041116" y2="362.3830846359056" stroke="#ffd966" stroke-width="11" stroke-linecap="round"/><line x1="316" y1="394.8" x2="365.9176722041116" y2="362.3830846359056" stroke="#ffd966" stroke-width="11" stroke-linecap="round"/><line x1="408" y1="394.8" x2="457.9176722041116" y2="362.3830846359056" stroke="#ffd966" stroke-width="11" stroke-linecap="round"/><line x1="500" y1="394.8" x2="549.9176722041117" y2="362.3830846359056" stroke="#ffd966" stroke-width="11" stroke-linecap="round"/><line x1="592" y1="394.8" x2="641.9176722041117" y2="362.3830846359056" stroke="#ffd966" stroke-width="11" stroke-linecap="round"/><line x1="684" y1="394.8" x2="733.9176722041117" y2="362.3830846359056" stroke="#ffd966" stroke-width="11" stroke-linecap="round"/><line x1="776" y1="394.8" x2="825.9176722041117" y2="362.3830846359056" stroke="#ffd966" stroke-width="11" stroke-linecap="round"/><line x1="868" y1="394.8" x2="917.9176722041117" y2="362.3830846359056" stroke="#ffd966" stroke-width="11" stroke-linecap="round"/><line x1="960" y1="394.8" x2="1009.9176722041117" y2="362.3830846359056" stroke="#ffd966" stroke-width="11" stroke-linecap="round"/><line x1="1052" y1="394.8" x2="1101.9176722041116" y2="362.3830846359056" stroke="#ffd966" stroke-width="11" stroke-linecap="round"/><circle cx="1101.9176722041116" cy="362.3830846359056" r="7" fill="#0000ff"/><line x1="30" y1="414" x2="1170" y2="414" stroke="#595959" stroke-width="2" stroke-opacity="0.4"/><line x1="40" y1="490.8" x2="86.90240005467209" y2="454.1558289886168" stroke="#ffd966" stroke-width="11" stroke-linecap="round"/><line x1="132" y1="490.8" x2="178.90240005467209" y2="454.1558289886168" stroke="#ffd966" stroke-width="11" stroke-linecap="round"/><line x1="224" y1="490.8" x2="270.90240005467206" y2="454.1558289886168" stroke="#ffd966" stroke-width="11" stroke-linecap="round"/><line x1="316" y1="490.8" x2="362.90240005467206" y2="454.1558289886168" stroke="#ffd966" stroke-width="11" stroke-linecap="round"/><line x1="408" y1="490.8" x2="454.90240005467206" y2="454.1558289886168" stroke="#ffd966" stroke-width="11" stroke-linecap="round"/><line x1="500" y1="490.8" x2="546.9024000546721" y2="454.1558289886168" stroke="#ffd966" stroke-width="11" stroke-linecap="round"/><line x1="592" y1="490.8" x2="638.9024000546721" y2="454.1558289886168" stroke="#ffd966" stroke-width="11" stroke-linecap="round"/><line x1="684" y1="490.8" x2="730.9024000546721" y2="454.1558289886168" stroke="#ffd966" stroke-width="11" stroke-linecap="round"/><line x1="776" y1="490.8" x2="822.9024000546721" y2="454.1558289886168" stroke="#ffd966" stroke-width="11" stroke-linecap="round"/><line x1="868" y1="490.8" x2="914.9024000546721" y2="454.1558289886168" stroke="#ffd966" stroke-width="11" stroke-linecap="round"/><line x1="960" y1="490.8" x2="1006.9024000546721" y2="454.1558289886168" stroke="#ffd966" stroke-width="11" stroke-linecap="round"/><line x1="1052" y1="490.8" x2="1098.9024000546722" y2="454.1558289886168" stroke="#ffd966" stroke-width="11" stroke-linecap="round"/><circle cx="1098.9024000546722" cy="454.1558289886168" r="7" fill="#0000ff"/><line x1="30" y1="510" x2="1170" y2="510" stroke="#595959" stroke-width="2" stroke-opacity="0.4"/><line x1="40" y1="586.8" x2="83.53017232037303" y2="546.20745760908" stroke="#ffd966" stroke-width="11" stroke-linecap="round"/><line x1="132" y1="586.8" x2="175.53017232037303" y2="546.20745760908" stroke="#ffd966" stroke-width="11" stroke-linecap="round"/><line x1="224" y1="586.8" x2="267.530172320373" y2="546.20745760908" stroke="#ffd966" stroke-width="11" stroke-linecap="round"/><line x1="316" y1="586.8" x2="359.530172320373" y2="546.20745760908" stroke="#ffd966" stroke-width="11" stroke-linecap="round"/><line x1="408" y1="586.8" x2="451.530172320373" y2="546.20745760908" stroke="#ffd966" stroke-width="11" stroke-linecap="round"/><line x1="500" y1="586.8" x2="543.530172320373" y2="546.20745760908" stroke="#ffd966" stroke-width="11" stroke-linecap="round"/><line x1="592" y1="586.8" x2="635.530172320373" y2="546.20745760908" stroke="#ffd966" stroke-width="11" stroke-linecap="round"/><line x1="684" y1="586.8" x2="727.530172320373" y2="546.20745760908" stroke="#ffd966" stroke-width="11" stroke-linecap="round"/><line x1="776" y1="586.8" x2="819.530172320373" y2="546.20745760908" stroke="#ffd966" stroke-width="11" stroke-linecap="round"/><line x1="868" y1="586.8" x2="911.530172320373" y2="546.20745760908" stroke="#ffd966" stroke-width="11" stroke-linecap="round"/><line x1="960" y1="586.8" x2="1003.530172320373" y2="546.20745760908" stroke="#ffd966" stroke-width="11" stroke-linecap="round"/><line x1="1052" y1="586.8" x2="1095.530172320373" y2="546.20745760908" stroke="#ffd966" stroke-width="11" stroke-linecap="round"/><circle cx="1095.530172320373" cy="546.20745760908" r="7" fill="#0000ff"/><line x1="30" y1="606" x2="1170" y2="606" stroke="#595959" stroke-width="2" stroke-opacity="0.4"/><line x1="40" y1="682.8" x2="79.82665369047925" y2="638.5680199875854" stroke="#ffd966" stroke-width="11" stroke-linecap="round"/><line x1="132" y1="682.8" x2="171.82665369047925" y2="638.5680199875854" stroke="#ffd966" stroke-width="11" stroke-linecap="round"/><line x1="224" y1="682.8" x2="263.82665369047925" y2="638.5680199875854" stroke="#ffd966" stroke-width="11" stroke-linecap="round"/><line x1="316" y1="682.8" x2="355.82665369047925" y2="638.5680199875854" stroke="#ffd966" stroke-width="11" stroke-linecap="round"/><line x1="408" y1="682.8" x2="447.82665369047925" y2="638.5680199875854" stroke="#ffd966" stroke-width="11" stroke-linecap="round"/><line x1="500" y1="682.8" x2="539.8266536904792" y2="638.5680199875854" stroke="#ffd966" stroke-width="11" stroke-linecap="round"/><line x1="592" y1="682.8" x2="631.8266536904792" y2="638.5680199875854" stroke="#ffd966" stroke-width="11" stroke-linecap="round"/><line x1="684" y1="682.8" x2="723.8266536904792" y2="638.5680199875854" stroke="#ffd966" stroke-width="11" stroke-linecap="round"/><line x1="776" y1="682.8" x2="815.8266536904792" y2="638.5680199875854" stroke="#ffd966" stroke-width="11" stroke-linecap="round"/><line x1="868" y1="682.8" x2="907.8266536904792" y2="638.5680199875854" stroke="#ffd966" stroke-width="11" stroke-linecap="round"/><line x1="960" y1="682.8" x2="999.8266536904792" y2="638.5680199875854" stroke="#ffd966" stroke-width="11" stroke-linecap="round"/><line x1="1052" y1="682.8" x2="1091.8266536904791" y2="638.5680199875854" stroke="#ffd966" stroke-width="11" stroke-linecap="round"/><circle cx="1091.8266536904791" cy="638.5680199875854" r="7" fill="#0000ff"/><line x1="30" y1="30" x2="30" y2="720" stroke="#0000ff" stroke-width="8"/></svg>
