<svg xmlns="http://www.w3.org/2000/svg" viewBox="0 0 1200 750" width="1200" height="750" role="img"><rect width="1200" height="750" fill="#2b2b2b"/><rect x="0" y="470" width="1200" height="14" fill="#9e9eff"/><polygon points="60,395.385 114,395.385 140,369.385 86,369.385" fill="#ffd966"/><rect x="60" y="395.385" width="54" height="74.61500000000001" fill="#ffd966" fill-opacity="0.55" stroke="#cfc7ae" stroke-width="2"/><polygon points="114,395.385 140,369.385 140,444 114,470" fill="#cfc7ae" fill-opacity="0.22"/><polygon points="156,371.9977162165966 210,371.9977162165966 236,345.9977162165966 182,345.9977162165966" fill="#ffd966"/><rect x="156" y="371.9977162165966" width="54" height="98.00228378340341" fill="#ffd966" fill-opacity="0.55" stroke="#cfc7ae" stroke-width="2"/><polygon points="210,371.9977162165966 236,345.9977162165966 236,444 210,470" fill="#cfc7ae" fill-opacity="0.22"/><circle cx="183.0" cy="530" r="13" fill="#9e9eff"/><line x1="183.0" y1="484" x2="183.0" y2="517" stroke="#9e9eff" stroke-width="4"/><polygon points="252,325.1995188211957 306,325.1995188211957 332,299.1995188211957 278,299.1995188211957" fill="#ffd966"/><rect x="252" y="325.1995188211957" width="54" height="144.80048117880432" fill="#ffd966" fill-opacity="0.55" stroke="#cfc7ae" stroke-width="2"/><polygon points="306,325.1995188211957 332,299.1995188211957 332,444 306,470" fill="#cfc7ae" fill-opacity="0.22"/><polygon points="348,298.51719925240525 402,298.51719925240525 428,272.51719925240525 374,272.51719925240525" fill="#ffd966"/><rect x="348" y="298.51719925240525" width="54" height="171.48280074759472" fill="#ffd966" fill-opacity="0.55" stroke="#cfc7ae" stroke-width="2"/><polygon points="402,298.51719925240525 428,272.51719925240525 428,444 402,470" fill="#cfc7ae" fill-opacity="0.22"/><polygon points="444,319.1452118767884 498,319.1452118767884 524,293.1452118767884 470,293.1452118767884" fill="#ffd966"/><rect x="444" y="319.1452118767884" width="54" height="150.85478812321162" fill="#ffd966" fill-opacity="0.55" stroke="#cfc7ae" stroke-width="2"/><polygon points="498,319.1452118767884 524,293.1452118767884 524,444 498,470" fill="#cfc7ae" fill-opacity="0.22"/><circle cx="471.0" cy="530" r="13" fill="#9e9eff"/><line x1="471.0" y1="484" x2="471.0" y2="517" stroke="#9e9eff" stroke-width="4"/><polygon points="540,361.474453970942 594,361.474453970942 620,335.474453970942 566,335.474453970942" fill="#ffd966"/><rect x="540" y="361.474453970942" width="54" height="108.52554602905796" fill="#ffd966" fill-opacity="0.55" stroke="#cfc7ae" stroke-width="2"/><polygon points="594,361.474453970942 620,335.474453970942 620,444 594,470" fill="#cfc7ae" fill-opacity="0.22"/><polygon points="636,369.52995832671024 690,369.52995832671024 716,343.52995832671024 662,343.52995832671024" fill="#ffd966"/><rect x="636" y="369.52995832671024" width="54" height="100.47004167328976" fill="#ffd966" fill-opacity="0.55" stroke="#cfc7ae" stroke-width="2"/><polygon points="690,369.52995832671024 716,343.52995832671024 716,444 690,470" fill="#cfc7ae" fill-opacity="0.22"/><polygon points="732,319.860457279495 786,319.860457279495 812,293.860457279495 758,293.860457279495" fill="#ffd966"/><rect x="732" y="319.860457279495" width="54" height="150.139542720505" fill="#ffd966" fill-opacity="0.55" stroke="#cfc7ae" stroke-width="2"/><polygon points="786,319.860457279495 812,293.860457279495 812,444 786,470" fill="#cfc7ae" fill-opacity="0.22"/><circle cx="759.0" cy="530" r="13" fill="#9e9eff"/><line x1="759.0" y1="484" x2="759.0" y2="517" stroke="#9e9eff" stroke-width="4"/><polygon points="828,254.27432891989744 882,254.27432891989744 908,228.27432891989744 854,228.27432891989744" fill="#ffd966"/><rect x="828" y="254.27432891989744" width="54" height="215.72567108010256" fill="#ffd966" fill-opacity="0.55" stroke="#cfc7ae" stroke-width="2"/><polygon points="882,254.27432891989744 908,228.27432891989744 908,444 882,470" fill="#cfc7ae" fill-opacity="0.22"/><polygon points="924,238.87991267616118 978,238.87991267616118 1004,212.87991267616118 950,212.87991267616118" fill="#ffd966"/><rect x="924" y="238.87991267616118" width="54" height="231.12008732383882" fill="#ffd966" fill-opacity="0.55" stroke="#cfc7ae" stroke-width="2"/><polygon points="978,238.87991267616118 1004,212.87991267616118 1004,444 978,470" fill="#cfc7ae" fill-opacity="0.22"/><polygon points="1020,289.0235470413922 1074,289.0235470413922 1100,263.0235470413922 1046,263.0235470413922" fill="#ffd966"/><rect x="1020" y="289.0235470413922" width="54" height="180.9764529586078" fill="#ffd966" fill-opacity="0.55" stroke="#cfc7ae" stroke-width="2"/><polygon points="1074,289.0235470413922 1100,263.0235470413922 1100,444 1074,470" fill="#cfc7ae" fill-opacity="0.22"/><circle cx="1047.0" cy="530" r="13" fill="#9e9eff"/><line x1="1047.0" y1="484" x2="1047.0" y2="517" stroke="#9e9eff" stroke-width="4"/><polygon points="1116,345.2334362482384 1170,345.2334362482384 1196,319.2334362482384 1142,319.2334362482384" fill="#ffd966"/><rect x="1116" y="345.2334362482384" width="54" height="124.7665637517616" fill="#ffd966" fill-opacity="0.55" stroke="#cfc7ae" stroke-width="2"/><polygon points="1170,345.2334362482384 1196,319.2334362482384 1196,444 1170,470" fill="#cfc7ae" fill-opacity="0.22"/></svg>
